# xmcd
#
# Track frame offsets:
#	150
#	14995
#	27859
#	40790
#	58002
#	77467
#	89815
#	104491
#	125187
#	141974
#	161307
#	174244
#	192559
#	206001
#	222448
#	240118
#	256417
#	269711
#	285437
#	302369
#
# Disc length: 4277 seconds
#
# Revision: 0
# Processed by: cddbd v1.5PL3 Copyright (c) Steve Scherf et al.
# Submitted via: audiograbber 1.80
#
DISCID=2410b314
DTITLE=Rose Marie - Anniversary Waltz CD 2
DYEAR=1900
DGENRE=
TTITLE0=When Irish Eyes Are Smiling
TTITLE1=The Golden Jubilee
TTITLE2=If You're irish, Come Into the parlour
TTITLE3=I'm Coming Home To Ireland
TTITLE4=Danny Boy
TTITLE5=It's A Great Day For The Irish
TTITLE6=Galway Bay
TTITLE7=The fields Of Atheny
TTITLE8=How Are Things In Glocca Morra?
TTITLE9=I Will Love You All My Life
TTITLE10=The Wild Rover
TTITLE11=The Leaving Of Liverpool
TTITLE12=How Can You Buy Killarney?
TTITLE13=Sweet Sixteen
TTITLE14=Molly Malone
TTITLE15=An Irish Lullyby
TTITLE16=Mother Machree
TTITLE17=The Green Glens Of Antrim
TTITLE18=How Great Thou Art
TTITLE19=There's A Little Bit Of Irish
EXTD=
EXTT0=
EXTT1=
EXTT2=
EXTT3=
EXTT4=
EXTT5=
EXTT6=
EXTT7=
EXTT8=
EXTT9=
EXTT10=
EXTT11=
EXTT12=
EXTT13=
EXTT14=
EXTT15=
EXTT16=
EXTT17=
EXTT18=
EXTT19=
PLAYORDER=
